<svg width="124" height="40" viewBox="0 0 124 40" fill="none" xmlns="http://www.w3.org/2000/svg">
    <g clip-path="url(#clip0_106_5123)">
        <path
            d="M64.757 15.6648L52.1214 27.2918H64.757V30.0956H46.9688V28.1407L59.1124 16.5908H46.9688V13.7612H64.757V15.6648Z"
            fill="#B4F046" />
        <path
            d="M66.1548 22.5072V21.3497C66.1548 17.131 68.6146 13.7612 77.0815 13.7612C83.0886 13.7612 86.7654 15.3304 86.7654 18.4686V18.8802C86.7654 22.9702 80.344 23.639 77.0556 23.639C75.3208 23.639 71.6958 23.4075 69.3914 23.0989C69.6503 25.7741 71.9806 27.2661 76.7708 27.2661C81.8457 27.2661 83.477 26.057 83.8395 24.1278H87.0502C86.9466 27.3689 83.7359 30.0699 76.719 30.0699C68.7958 30.0956 66.1548 26.623 66.1548 22.5072ZM83.5547 18.5715V18.5458C83.5547 17.4397 82.6743 16.5651 77.1074 16.5651C71.1003 16.5651 69.3914 18.2628 69.3914 20.3207C71.8512 20.6551 75.5279 20.8609 77.0815 20.8609C83.0886 20.8352 83.5547 19.832 83.5547 18.5715Z"
            fill="#B4F046" />
        <path
            d="M109.733 19.0086V26.3912C109.733 27.7546 109.836 28.7064 110.121 30.0954H106.911C106.781 29.5552 106.6 28.5777 106.6 27.6774C105.435 28.9121 102.82 30.0954 97.3562 30.0954C90.5464 30.0954 89.6143 27.4202 89.6143 25.7996V25.3366C89.6143 21.5809 92.5142 20.7578 98.2624 20.3205C104.503 19.8575 106.548 19.4973 106.548 19.1115C106.548 18.5199 106.237 16.5906 99.8678 16.5906C94.5857 16.5906 93.3946 17.671 93.3946 19.4716H90.1839C90.1839 17.388 91.4785 13.7867 99.8678 13.7867C109.319 13.761 109.733 18.0826 109.733 19.0086ZM106.522 22.7128V22.1983C104.839 22.507 102.483 22.79 100.8 22.8928C99.6865 22.9443 98.7285 23.0472 97.5892 23.1501C93.2133 23.4845 92.7991 24.2819 92.7991 25.3366V25.4909C92.7991 26.5199 93.3169 27.2916 97.3303 27.2916C103.985 27.2916 106.522 25.5424 106.522 22.7128Z"
            fill="#B4F046" />
        <path d="M112.557 8.15332H115.768V30.0954H112.557V8.15332Z" fill="#B4F046" />
        <path
            d="M31.8532 6.67873C31.6315 6.45855 31.2621 6.42185 31.0405 6.64203L21.5103 16.1834V11.4494L28.307 4.69706C28.5656 4.44018 28.4917 3.99981 28.1962 3.81632C27.9746 3.70623 27.716 3.74293 27.5313 3.92642L21.2517 10.165C21.1778 10.2384 20.9931 10.4219 20.9931 10.4219C20.9931 10.4219 20.8084 10.2384 20.7345 10.165L14.4549 3.92642C14.2702 3.74293 14.0116 3.70623 13.79 3.81632C13.4576 3.99981 13.4206 4.40348 13.6792 4.66037L20.476 11.4127V16.11L10.8349 6.67873C10.6133 6.45855 10.2439 6.45855 10.0592 6.67873C9.83755 6.89892 9.87449 7.22919 10.0592 7.44938L20.4021 17.7247V19.3761V19.4495V20.477V20.5504V23.8165V23.8899V24.9174V24.9908V31.8533V32.9542V35.2294C20.4021 35.523 20.6607 35.7799 20.9562 35.7799C21.2517 35.7799 21.5103 35.523 21.5103 35.2294V32.9542V31.8533V25.0275V24.9541V23.9266V23.8532V20.5871V20.5137V19.4862V19.3761V17.7247L31.8532 7.44938C32.0378 7.26589 32.0378 6.89892 31.8532 6.67873Z"
            fill="#B4F046" />
        <path
            d="M7.36355 10.5327C7.36355 10.5327 7.36355 10.5694 7.36355 10.5327C7.25273 10.7529 7.28967 11.0098 7.47436 11.1566L15.4532 19.1199L6.69865 18.6062C6.3662 18.5695 6.07068 18.8997 6.10762 19.23C6.14456 19.4869 6.36619 19.6704 6.62477 19.7071L15.9334 20.2576V23.3035L7.84375 22.8264C7.40049 22.7897 7.14191 23.2668 7.32661 23.6337V23.6704C7.40049 23.8539 7.58518 23.964 7.76988 23.964L15.9334 24.4411V31.0466V31.9641C15.9334 32.2577 16.192 32.5145 16.4875 32.5145C16.783 32.5145 17.0415 32.2577 17.0415 31.9641V31.3769V19.1199L8.25008 10.3859C7.99151 10.129 7.5113 10.2024 7.36355 10.5327Z"
            fill="#B4F046" />
        <path
            d="M35.2172 18.5687L26.4627 19.0824L34.4415 11.1558C34.5893 11.009 34.6632 10.7521 34.5523 10.5319C34.4046 10.2016 33.9244 10.0915 33.6658 10.3851L24.8374 19.1191V19.6696V31.3761V31.9266C24.8374 32.2202 25.096 32.477 25.3915 32.477C25.687 32.477 25.9456 32.2202 25.9456 31.9266V31.0091V24.4036L34.1091 23.9265C34.2938 23.9265 34.4785 23.8164 34.5523 23.6329C34.774 23.266 34.4785 22.7889 34.0352 22.8256L25.9456 23.3027V20.2568L35.2542 19.7063C35.5128 19.7063 35.7344 19.4861 35.7713 19.2292C35.8452 18.8623 35.5497 18.5687 35.2172 18.5687Z"
            fill="#B4F046" />
        <path
            d="M9.39549 16.7339C9.46937 16.6972 9.50631 16.6238 9.54324 16.5871C9.58018 16.5137 9.58018 16.4403 9.58018 16.3669C9.54324 15.3394 8.95222 14.422 8.06569 13.9449C7.17915 13.4678 6.07099 13.5045 5.18445 14.0183C5.07363 14.0917 4.99976 14.2385 4.99976 14.3853C5.03669 15.4128 5.62772 16.3302 6.51425 16.8073C7.43773 17.3211 8.50895 17.2844 9.39549 16.7339Z"
            fill="#B4F046" />
        <path
            d="M36.6545 14.056C35.768 13.5055 34.6968 13.4688 33.7733 13.9826C32.8868 14.4597 32.2957 15.3771 32.2588 16.4046C32.2588 16.478 32.2588 16.5514 32.2957 16.6248C32.3327 16.6982 32.3696 16.7349 32.4435 16.7716C33.33 17.3221 34.4012 17.3588 35.3247 16.845C36.2113 16.3679 36.8023 15.4505 36.8392 14.423C36.8392 14.2762 36.7653 14.1294 36.6545 14.056Z"
            fill="#B4F046" />
        <path
            d="M20.7382 7.04591C20.8121 7.08261 20.8859 7.08261 20.9598 7.08261C21.0337 7.08261 21.1076 7.04591 21.1815 7.00922C22.068 6.49545 22.6221 5.54131 22.6221 4.51378C22.6221 3.48625 22.068 2.56881 21.1815 2.05505C21.0706 1.98165 20.8859 1.98165 20.7751 2.05505C19.8886 2.56881 19.3345 3.52295 19.3345 4.55048C19.2976 5.57801 19.8516 6.53215 20.7382 7.04591Z"
            fill="#B4F046" />
    </g>
    <defs>
        <clipPath id="clip0_106_5123">
            <rect width="124" height="40" fill="white" />
        </clipPath>
    </defs>
</svg>